PathFileType	4	(X/Y/Z)	ScaleMarkers.trc																																																																																								
DataRate	CameraRate	NumFrames	NumMarkers	Units	OrigDataRate	OrigDataStartFrame	OrigNumFrames																																																																																				
100	100	6	30	mm	100	38 100																																																																																					
Frame#	Time	Thumb_MCP_L			Thumb_PIP_L			Thumb_DIP_L			Thumb_TIP_L			Index_MCP_L			Index_PIP_L			Index_DIP_L			Index_TIP_L			Middle_MCP_L			Middle_PIP_L			Middle_DIP_L			Middle_TIP_L			Ring_MCP_L			Ring_PIP_L			Ring_DIP_L			Ring_TIP_L			Little_MCP_L			Little_PIP_L			Little_DIP_L			Little_TIP_L			Wrist_L			Elbow_L			Point_W1_L			Point_E1_L			Shoulder_L			Point_F1_L			Point_F2_L			Point_F3_L			Point_F4_L			Point_F5_L		
		X1	Y1	Z1	X2	Y2	Z2	X3	Y3	Z3	X4	Y4	Z4	X5	Y5	Z5	X6	Y6	Z6	X7	Y7	Z7	X8	Y8	Z8	X9	Y9	Z9	X10	Y10	Z10	X11	Y11	Z11	X12	Y12	Z12	X13	Y13	Z13	X14	Y14	Z14	X15	Y15	Z15	X16	Y16	Z16	X17	Y17	Z17	X18	Y18	Z18	X19	Y19	Z19	X20	Y20	Z20	X21	Y21	Z21	X22	Y22	Z22	X23	Y23	Z23	X24	Y24	Z24	X25	Y25	Z25	X26	Y26	Z26	X27	Y27	Z27	X28	Y28	Z28	X29	Y29	Z29	X30	Y30	Z30
38	14.11348617	192.4605992	-110.8954298	-164.7652194	198.3626109	-102.5108589	-152.4809938	207.3049347	-112.6267652	-148.7795843	215.7011051	-124.9488806	-147.1444568	197.8117673	-113.2817975	-183.5285948	219.9611478	-120.3523045	-164.5692101	211.9342802	-137.1334613	-157.224161	204.1132451	-152.1297369	-151.0630631	193.597047	-117.0099624	-184.2172792	221.5301318	-130.7656488	-176.8301872	211.8510543	-147.1903727	-163.9625612	200.1180022	-159.7401857	-153.7228168	190.6086846	-121.6885665	-189.9039419	220.860195	-130.8360458	-184.8948374	211.1619151	-146.6365642	-173.0593923	201.1656398	-160.4662551	-162.6197677	188.1742474	-121.9711657	-190.1247101	210.6635115	-126.2111367	-192.4073923	210.9635503	-138.0011146	-186.9487943	195.4280001	-146.4763569	-180.0353786	157.5779555	-101.7072198	-163.6858325	-38.64662792	-127.8064931	-135.1716117	167.5543113	-84.75255881	-160.0848717	-34.80248585	-142.6050008	-122.27836	0	0	0	206.3523227	-103.0248309	-176.8108296	206.7660443	-123.8721092	-197.9395357	192.0827794	-128.7473127	-200.3400047	189.7603456	-133.3326606	-206.1408037	184.7723139	-130.3086625	-207.9791854
39	14.12348617	192.444253	-110.8983647	-164.7474129	198.354998	-102.5127906	-152.4693409	207.3001129	-112.628194	-148.7720799	215.6965257	-124.9503193	-147.1379182	197.7965794	-113.2823971	-183.5116028	219.9539905	-120.3545094	-164.5630758	211.9348308	-137.1366419	-157.2129902	204.1125363	-152.1326163	-151.0542359	193.5823336	-117.0107172	-184.2011301	221.5246312	-130.7531643	-176.8256653	211.8525902	-147.1829595	-163.9571942	200.1178915	-159.7336606	-153.7209643	190.5945798	-121.6890255	-189.8888785	220.8400181	-130.8006734	-184.784377	211.167009	-146.6232177	-172.9526934	201.1675718	-160.4610422	-162.5152483	188.1601739	-121.9717223	-190.1095803	210.6540737	-126.2461908	-192.285429	211.0709098	-138.019075	-186.7937178	195.5287361	-146.4876226	-179.8863324	157.5604482	-101.7126728	-163.6684594	-38.65947628	-127.8262776	-135.1522897	167.5345713	-84.75788447	-160.0688383	-34.81289009	-142.6228934	-122.2572791	0	0	0	206.3293571	-103.0306187	-176.8054686	206.7443523	-123.87214	-197.9285379	192.0698733	-128.7473808	-200.3253611	189.7915886	-133.3424348	-206.1158236	184.8039596	-130.3705946	-207.9369708
40	14.13348617	192.43709	-110.9051658	-164.7374701	198.3518761	-102.5173763	-152.4632342	207.2982356	-112.6287031	-148.7584241	215.6947219	-124.9508408	-147.1260523	197.7891648	-113.2840425	-183.5028315	219.9495397	-120.3590773	-164.5592612	211.9351732	-137.1428465	-157.2060436	204.1105855	-152.1382086	-151.0487466	193.5751203	-117.0127604	-184.1925473	221.5218529	-130.7464209	-176.8191615	211.8535454	-147.1788189	-163.9538567	200.1175801	-159.7299285	-153.7198124	190.5872306	-121.6903147	-189.8807638	220.8308008	-130.778677	-184.71287	211.1784859	-146.614918	-172.8784944	201.1719272	-160.4520331	-162.4631769	188.1528198	-121.9732696	-190.1011244	210.649789	-126.260592	-192.2241458	211.1256942	-138.0258455	-186.7149018	195.5801319	-146.4916716	-179.8109094	157.5527524	-101.7248087	-163.6576559	-38.66496927	-127.8662023	-135.1125108	167.525899	-84.76963701	-160.0462858	-34.8172351	-142.6589975	-122.2140201	0	0	0	206.3189175	-103.0429897	-176.799831	206.7339739	-123.8722319	-197.9213005	192.0633559	-128.7475826	-200.3175315	189.8461259	-133.3631844	-206.1025337	184.8517936	-130.441681	-207.9145009
41	14.14348617	192.5687213	-111.1142809	-164.7427429	198.3588077	-102.5888441	-152.5045329	207.3502254	-112.6206183	-148.6946854	215.7437043	-124.9459556	-147.0714035	197.9313934	-113.4507884	-183.5105232	220.113032	-120.4751823	-164.5737886	211.7885473	-137.2003796	-157.4347123	203.9541725	-152.1877313	-151.2701141	193.7199172	-117.1806518	-184.210104	221.6893664	-130.8511093	-176.8063852	211.8379419	-147.2045175	-163.9802738	200.0930902	-159.7538598	-153.7542549	190.7375949	-121.8481857	-189.9095067	221.0075521	-130.820078	-184.6917228	211.346103	-146.6434255	-172.8476627	201.2244008	-160.4178573	-162.4652976	188.3034623	-122.1321785	-190.1316169	210.8257124	-126.1909428	-192.4328065	211.0994318	-137.9686498	-186.9359049	195.5407827	-146.4211167	-180.0446281	157.6783973	-101.9576264	-163.660251	-38.42516627	-128.4366966	-134.6384013	167.6396325	-85.00389764	-160.0074477	-34.51963835	-143.1742862	-121.6943231	0	0	0	206.4555252	-103.2444092	-176.7944617	206.8755786	-124.0525832	-197.9193224	192.2431633	-128.9313278	-200.32652	190.0580566	-133.5584774	-206.1078875	184.9667576	-130.5357408	-207.9713653
42	14.15348617	192.5791693	-111.1441961	-164.7812025	198.3590431	-102.6457923	-152.5207143	207.3735874	-112.6353848	-148.6542031	215.7680269	-124.9610822	-147.038368	197.9540365	-113.4791366	-183.5455255	220.0916648	-120.5076503	-164.5604676	211.7862492	-137.2362607	-157.4048663	203.9485545	-152.223089	-151.2437673	193.7430557	-117.2090378	-184.2482766	221.7045619	-130.8749572	-176.8088578	211.8399426	-147.2217147	-163.983924	200.0921582	-159.7716475	-153.759765	190.7645405	-121.8762026	-189.9500889	221.0259791	-130.8833477	-184.7405672	211.3114128	-146.682943	-172.9071939	201.152435	-160.4386535	-162.5309985	188.3305574	-122.1602337	-190.1738799	210.8738686	-125.97425	-192.6597485	210.8662163	-137.7598416	-187.1610718	195.3099248	-146.2220886	-180.2773899	157.6880806	-101.9883914	-163.7217675	-38.42002153	-128.3984249	-134.6743653	167.646888	-85.03469895	-160.060823	-34.51741594	-143.1397262	-121.7333623	0	0	0	206.4786421	-103.2539979	-176.8053603	206.9248754	-124.0861664	-197.9336097	192.2852926	-128.9715188	-200.3592924	190.0705451	-133.5828991	-206.1503202	184.9647019	-130.4983263	-208.041445
43	14.16348617	192.6567439	-111.1817639	-164.8494468	198.3665402	-102.6888022	-152.5502205	207.4022844	-112.6363456	-148.6222499	215.7991938	-124.9618897	-147.017592	198.0483282	-113.5131545	-183.6094341	220.1219578	-120.5424653	-164.5479079	211.7855581	-137.2650945	-157.4145667	203.9408351	-152.2503186	-151.2583088	193.8371958	-117.2419214	-184.3167678	221.7855381	-130.9738338	-176.9452935	211.7897521	-147.2561013	-164.1422563	200.0213391	-159.7815601	-153.9116241	190.8628642	-121.9069592	-190.0223375	221.1135832	-130.9312182	-184.779377	211.3555769	-146.7053094	-172.9472491	201.1503612	-160.4293362	-162.5800166	188.4290242	-122.1903799	-190.2483783	210.9944181	-125.9793461	-192.5852171	210.9213441	-137.7214935	-187.0038093	195.3596987	-146.1885339	-180.1377834	157.7666054	-102.0184735	-163.8192993	-38.34073851	-128.3824547	-134.712293	167.7255451	-85.06792834	-160.1447456	-34.43874945	-143.125227	-121.7729998	0	0	0	206.5915061	-103.2457782	-176.8002219	207.0628159	-124.1292102	-197.9634147	192.3174913	-128.9844049	-200.4358654	190.1733867	-133.6259162	-206.2142218	185.1632747	-130.646989	-208.0749908
